<svg xmlns="http://www.w3.org/2000/svg" xmlns:xlink="http://www.w3.org/1999/xlink" width="1080" zoomAndPan="magnify" viewBox="0 0 810 817.92" height="1080" preserveAspectRatio="xMidYMid meet" version="1.0"><defs><clipPath id="d267c49a78"><path d="M 81.03125 80.992188 L 728.96875 80.992188 L 728.96875 728.929688 L 81.03125 728.929688 Z M 81.03125 80.992188 " clip-rule="nonzero"/></clipPath></defs><g clip-path="url(#d267c49a78)"><path fill="#000000" d="M 270.742188 83.21875 C 236.285156 84.835938 212.753906 90.363281 192.183594 98.417969 C 170.882812 106.71875 152.84375 117.828125 134.898438 135.867188 C 116.921875 153.902344 105.875 171.972656 97.664062 193.304688 C 89.699219 213.9375 84.296875 237.46875 82.769531 271.953125 C 81.246094 306.472656 80.910156 317.492188 81.0625 405.449219 C 81.214844 493.375 81.613281 504.425781 83.257812 538.972656 C 84.90625 573.429688 90.402344 596.929688 98.457031 617.53125 C 106.761719 638.835938 117.871094 656.839844 135.90625 674.816406 C 153.945312 692.792969 172.011719 703.8125 193.34375 712.050781 C 213.945312 720.015625 237.507812 725.449219 271.964844 726.945312 C 306.511719 728.472656 317.53125 728.804688 405.457031 728.625 C 493.414062 728.472656 504.433594 728.074219 538.980469 726.425781 C 573.4375 724.777344 596.9375 719.253906 617.539062 711.226562 C 638.84375 702.894531 656.878906 691.816406 674.824219 673.78125 C 692.773438 655.742188 703.820312 637.675781 712.058594 616.339844 C 720.027344 595.738281 725.457031 572.179688 726.953125 537.753906 C 728.449219 503.203125 728.816406 492.15625 728.664062 404.226562 C 728.511719 316.300781 728.082031 305.28125 726.464844 270.734375 C 724.816406 236.246094 719.324219 212.746094 711.265625 192.144531 C 702.933594 170.84375 691.855469 152.835938 673.820312 134.859375 C 655.78125 116.914062 637.714844 105.835938 616.378906 97.625 C 595.78125 89.660156 572.21875 84.226562 537.761719 82.730469 C 503.210938 81.207031 492.164062 80.871094 404.238281 81.023438 C 316.308594 81.175781 305.292969 81.570312 270.742188 83.21875 M 274.527344 668.621094 C 242.96875 667.246094 225.816406 662 214.371094 657.605469 C 199.234375 651.742188 188.460938 644.722656 177.078125 633.460938 C 165.722656 622.140625 158.703125 611.367188 152.785156 596.289062 C 148.359375 584.875 143.015625 567.753906 141.523438 536.164062 C 139.90625 502.042969 139.539062 491.789062 139.386719 405.328125 C 139.234375 318.894531 139.539062 308.640625 141.035156 274.488281 C 142.375 242.929688 147.65625 225.777344 152.050781 214.363281 C 157.910156 199.226562 164.898438 188.453125 176.191406 177.070312 C 187.515625 165.714844 198.289062 158.695312 213.394531 152.773438 C 224.8125 148.320312 241.933594 143.007812 273.488281 141.511719 C 307.640625 139.894531 317.867188 139.558594 404.328125 139.375 C 490.792969 139.195312 501.046875 139.5 535.199219 141.023438 C 566.753906 142.398438 583.90625 147.617188 595.320312 152.042969 C 610.460938 157.902344 621.265625 164.859375 632.617188 176.183594 C 643.96875 187.507812 651.019531 198.25 656.910156 213.386719 C 661.367188 224.769531 666.675781 241.921875 668.171875 273.449219 C 669.789062 307.601562 670.15625 317.855469 670.308594 404.289062 C 670.460938 490.75 670.15625 501.007812 668.660156 535.128906 C 667.289062 566.683594 662.039062 583.867188 657.644531 595.28125 C 651.785156 610.390625 644.792969 621.195312 633.472656 632.546875 C 622.148438 643.871094 611.40625 650.921875 596.269531 656.839844 C 584.882812 661.296875 567.730469 666.605469 536.203125 668.101562 C 502.054688 669.71875 491.828125 670.085938 405.335938 670.238281 C 318.902344 670.390625 308.648438 670.085938 274.496094 668.589844 M 538.523438 231.730469 C 538.554688 253.183594 556.011719 270.550781 577.4375 270.488281 C 598.894531 270.460938 616.257812 253.03125 616.226562 231.578125 C 616.199219 210.121094 598.738281 192.753906 577.285156 192.785156 C 555.828125 192.816406 538.464844 210.273438 538.492188 231.699219 M 238.574219 405.144531 C 238.757812 496.976562 313.347656 571.261719 405.152344 571.078125 C 496.988281 570.898438 571.300781 496.335938 571.121094 404.503906 C 570.9375 312.699219 496.347656 238.382812 404.511719 238.535156 C 312.707031 238.71875 238.390625 313.308594 238.574219 405.144531 M 296.898438 405.019531 C 296.808594 345.417969 345.027344 296.980469 404.632812 296.890625 C 464.238281 296.765625 512.675781 344.988281 512.796875 404.625 C 512.917969 464.230469 464.667969 512.664062 405.0625 512.757812 C 345.457031 512.878906 297.019531 464.625 296.929688 405.019531 " fill-opacity="1" fill-rule="nonzero"/></g></svg>